# Blender 3.4.1
# www.blender.org
mtllib poop.mtl
o Poop
v -4.903794 -3.280484 4.324223
v -0.177033 -2.850372 5.477242
v -4.269181 -3.271636 2.192075
v 0.225698 -3.154388 1.654166
v -4.509145 -2.139983 4.068340
v 0.196881 -0.879921 4.610658
v -4.509193 -2.133131 2.193803
v 0.196626 -0.860575 1.660345
v -2.925476 -2.601792 1.356188
v -1.349889 -2.601792 1.356188
v -1.752620 -2.447973 5.775219
v -3.328207 -2.606932 5.775219
v -2.952988 -0.590605 4.908359
v -1.378040 -0.532336 4.908494
v -1.378347 -0.510337 1.362236
v -2.953294 -0.568666 1.362101
v -4.502636 -3.863910 3.129682
v 0.224014 -3.890558 3.129706
v 0.176580 -0.224220 3.139789
v -4.510933 -2.097776 3.131447
v -1.351536 -3.622702 3.129699
v -2.927086 -3.622207 3.129690
v -1.397921 0.081201 3.139559
v -2.972423 -0.001171 3.139328
v 2.882184 -3.958780 2.824023
v 1.715446 -3.463253 1.644812
v 1.149803 -1.063653 1.851390
v 1.997985 -0.242838 3.145278
v 3.217121 -0.832526 4.308040
v 3.793099 -3.229173 4.099266
v 4.730494 -3.253611 0.823255
v 2.928159 -3.068587 0.987143
v 2.371865 -0.467213 1.043288
v 3.845152 0.767463 0.915565
v 5.692277 0.457266 0.745977
v 6.278764 -2.166274 0.683414
v 4.424338 -2.726238 -3.583826
v 2.334890 -2.766818 -1.018070
v 2.076169 -0.252689 -0.297978
v 3.185726 1.156293 -1.312010
v 4.491571 1.023126 -2.770439
v 4.789106 -1.562723 -3.498781
v 0.414028 -2.004565 -5.571465
v -0.391512 -2.079880 -2.442690
v -0.448915 0.384432 -1.611288
v -0.518945 1.833205 -3.126696
v -0.513418 1.769497 -5.154135
v -0.411069 -0.715221 -5.995090
v -5.449071 -2.220159 -3.826207
v -3.332556 -2.003439 -2.022481
v -2.064177 0.286904 -2.163705
v -3.311445 1.786073 -2.832600
v -5.291111 1.793612 -3.423542
v -6.278764 -0.499358 -3.293871
v -4.423962 -1.740964 1.261779
v -2.738047 -1.799153 0.272941
v -1.545579 0.412374 -0.449061
v -2.636876 2.111614 0.158540
v -4.417307 2.247426 1.196289
v -5.545678 -0.288470 1.904667
v -1.783646 -0.864937 5.465859
v -0.125096 -1.990374 4.452274
v 0.864528 0.335381 3.443403
v -0.309237 2.380792 3.919612
v -2.049696 2.816347 4.999725
v -2.975774 0.629344 5.995090
v 3.771438 -0.802123 5.024064
v 2.582672 -2.091747 3.864227
v 1.435509 0.268699 2.791687
v 1.951225 2.355127 3.441985
v 3.179824 3.081202 4.737735
v 4.399780 0.883383 5.794803
v 3.891588 -0.421652 1.360360
v 2.648099 -1.567548 1.416634
v 1.830336 0.311319 2.334429
v 2.093187 2.483992 2.148503
v 2.855187 3.525062 1.406051
v 4.222250 1.678292 1.114255
v 3.458467 -0.083311 -0.992849
v 1.899618 -0.954803 -1.175952
v -0.005584 0.919714 -0.427056
v 0.574328 2.771314 -0.326205
v 2.388743 3.640593 -1.042296
v 4.161612 1.797572 -0.885358
v -1.519469 1.337102 -3.340213
v -1.840379 0.585093 -2.082506
v -2.001237 1.503217 -0.438700
v -1.788081 2.754877 -0.798001
v -1.478967 3.468209 -2.152213
v -1.292475 2.549732 -3.801466
v -3.691442 2.841030 0.035451
v -3.262240 2.829376 0.408730
v -2.732713 3.449417 0.499693
v -2.876562 3.806877 0.176457
v -3.338519 3.786725 -0.202378
v -3.864917 3.157007 -0.294006
v -4.238782 3.620341 0.948282
v -4.049928 3.619640 1.112327
v -3.820292 3.900462 1.152768
v -3.844471 3.958779 1.099198
v -4.045289 3.943348 0.934490
v -4.267248 3.670670 0.895309
vn 0.0245 -0.4508 -0.8923
vn -0.0892 -0.9944 -0.0571
vn 0.0710 -0.9956 -0.0612
vn -0.1601 -0.4318 -0.8876
vn 0.1161 0.7227 0.6814
vn 0.0932 0.9956 0.0062
vn -0.4254 0.9050 0.0054
vn -0.3875 0.7056 0.5933
vn 0.0537 -0.2985 0.9529
vn -0.3166 -0.2878 0.9039
vn -0.7963 -0.2965 0.5272
vn -0.0655 0.8594 0.5071
vn -0.5457 0.8292 0.1211
vn -0.9755 0.2080 0.0715
vn -0.3799 0.5654 -0.7321
vn 0.1064 0.5911 -0.7996
vn -0.5524 -0.8279 -0.0974
vn -0.9337 0.3462 -0.0918
vn -0.8463 0.2013 -0.4931
vn -0.5522 -0.5421 -0.6334
vn -0.0234 -0.5460 -0.8374
vn -0.1005 -0.9949 0.0090
vn -0.8034 -0.4329 0.4089
vn 0.2095 0.6334 0.7450
vn 0.1589 0.9872 -0.0148
vn 0.1043 -0.4512 0.8863
vn -0.8801 0.4108 0.2382
vn 0.1820 0.5380 -0.8231
vn -0.3357 -0.2918 0.8957
vn 0.1202 0.3017 0.9458
vn -0.1880 -0.6463 -0.7396
vn 0.1476 -0.9887 0.0274
vn -0.2260 0.5095 -0.8303
vn -0.0885 0.9828 0.1619
vn 0.3892 0.5219 0.7590
vn 0.5494 -0.4649 0.6943
vn -0.4417 -0.7860 -0.4325
vn 0.3809 -0.9204 -0.0883
vn -0.8600 0.4886 -0.1476
vn -0.1409 0.9563 0.2562
vn 0.7373 0.6409 0.2136
vn 0.9629 -0.2537 0.0916
vn -0.4909 -0.8485 0.1980
vn 0.3901 -0.7622 -0.5165
vn -0.7136 0.3220 0.6222
vn -0.0500 0.9643 0.2599
vn 0.5975 0.6972 -0.3962
vn 0.7545 -0.0683 -0.6527
vn -0.2090 -0.8353 0.5085
vn 0.0979 -0.6227 -0.7763
vn -0.2327 0.2859 0.9296
vn -0.0029 0.9364 0.3508
vn 0.0529 0.7377 -0.6731
vn -0.0255 0.0790 -0.9965
vn 0.2168 -0.9591 0.1819
vn -0.4839 -0.7579 -0.4376
vn 0.6476 0.2983 0.7012
vn 0.1470 0.9884 0.0381
vn -0.5588 0.7100 -0.4286
vn -0.9189 -0.0753 -0.3873
vn 0.3901 -0.9156 -0.0981
vn -0.4714 -0.8405 0.2670
vn 0.9142 0.0464 -0.4027
vn 0.3998 0.8794 -0.2584
vn -0.5292 0.8427 0.0990
vn -0.9190 -0.1157 0.3769
vn 0.1183 -0.9837 0.1354
vn -0.1956 -0.6973 0.6895
vn 0.1514 -0.0891 -0.9845
vn 0.1120 0.8468 -0.5200
vn -0.2680 0.8488 0.4558
vn -0.5240 -0.0194 0.8515
vn 0.0849 -0.9962 0.0208
vn 0.6277 -0.5741 0.5257
vn -0.7481 -0.1359 -0.6495
vn -0.5980 0.6896 -0.4085
vn 0.3045 0.8677 0.3930
vn 0.7124 0.0867 0.6964
vn -0.0581 -0.9899 -0.1294
vn 0.8496 -0.5086 -0.1395
vn -0.9770 -0.2115 0.0278
vn -0.8061 0.5586 0.1955
vn 0.1948 0.9713 0.1361
vn 0.9763 0.2083 -0.0583
vn -0.1193 -0.9323 -0.3416
vn 0.6437 -0.5208 -0.5607
vn -0.5730 -0.3980 0.7164
vn -0.4321 0.6366 0.6387
vn 0.2396 0.9455 -0.2206
vn 0.8509 0.2066 -0.4830
vn -0.5169 -0.8456 -0.1332
vn -0.2999 -0.4723 -0.8289
vn -0.1189 -0.4636 0.8780
vn 0.4165 0.5875 0.6938
vn -0.0741 0.9486 -0.3078
vn -0.1134 0.1877 -0.9756
vn -0.3561 -0.7456 0.5632
vn -0.8146 -0.5732 -0.0887
vn 0.5967 0.0041 0.8025
vn 0.5771 0.7543 0.3131
vn -0.1728 0.9424 -0.2865
vn -0.8628 0.1375 -0.4865
vt 0.762071 0.437055
vt 0.287074 0.131253
vt 0.284019 0.129640
vt 0.358248 0.273808
vt 0.357191 0.274531
vt 0.624919 0.395673
vt 0.223581 0.106702
vt 0.742256 0.502800
vt 0.609748 0.518119
vt 0.101346 0.040552
vt 0.262837 0.158025
vt 0.305592 0.309808
vt 0.212658 0.137586
vt 0.212358 0.138600
vt 0.068715 0.098987
vt 0.224504 0.370030
vt 0.173807 0.100750
vt 0.702729 0.533695
vt 0.656729 0.533684
vt 0.133934 0.077814
vt 0.331612 0.233557
vt 0.671959 0.384861
vt 0.316254 0.189953
vt 0.718042 0.388562
vt 0.252799 0.232329
vt 0.262606 0.226663
vt 0.280395 0.269118
vt 0.104208 0.131157
vt 0.192628 0.334320
vt 0.164856 0.187019
vt 0.144923 0.152593
vt 0.165361 0.297258
vt 0.748995 0.475337
vt 0.255919 0.101026
vt 0.749193 0.470449
vt 0.610325 0.470087
vt 0.261720 0.341541
vt 0.267455 0.337269
vt 0.237425 0.148840
vt 0.656791 0.473950
vt 0.656964 0.468842
vt 0.702770 0.470666
vt 0.702790 0.473958
vt 0.236731 0.301995
vt 0.209284 0.265044
vt 0.208802 0.219036
vt 0.532453 0.476113
vt 0.565650 0.514098
vt 0.068384 0.010977
vt 0.047124 0.079953
vt 0.243369 0.391438
vt 0.293740 0.383708
vt 0.299409 0.379832
vt 0.351097 0.385860
vt 0.334534 0.392607
vt 0.405418 0.387172
vt 0.406538 0.387086
vt 0.507343 0.432381
vt 0.477335 0.536915
vt 0.464457 0.522160
vt 0.027989 0.000000
vt 0.530427 0.535562
vt 0.300159 0.416664
vt 0.001497 0.073007
vt 0.272359 0.489181
vt 0.257892 0.435114
vt 0.299384 0.473005
vt 0.273696 0.465451
vt 0.305796 0.509908
vt 0.333739 0.524719
vt 0.409753 0.513897
vt 0.411527 0.514165
vt 0.437675 0.648463
vt 0.479472 0.666790
vt 0.437858 0.659192
vt 0.544743 0.595561
vt 0.239578 0.405181
vt 0.232532 0.481572
vt 0.230492 0.465019
vt 0.250777 0.521630
vt 0.210496 0.492599
vt 0.203428 0.549424
vt 0.327011 0.634241
vt 0.405217 0.644623
vt 0.594100 0.732982
vt 0.402414 0.786717
vt 0.623160 0.643338
vt 0.147841 0.412412
vt 0.147650 0.488361
vt 0.147960 0.485948
vt 0.147653 0.487011
vt 0.130947 0.544768
vt 0.098415 0.444360
vt 0.287240 0.792633
vt 0.054021 0.483523
vt 0.290207 0.828679
vt 0.362011 0.809458
vt 0.363852 0.808422
vt 0.422591 0.963741
vt 0.768138 0.692656
vt 0.788299 0.688921
vt 0.062409 0.417545
vt 0.709550 0.636224
vt 0.099658 0.482649
vt 0.633108 0.640030
vt 0.089346 0.411920
vt 0.053642 0.520059
vt 0.047077 0.369085
vt 0.051084 0.377418
vt 0.306973 0.975949
vt 0.000000 0.345354
vt 0.962966 0.213193
vt 0.376686 0.996371
vt 1.000000 0.276073
vt 0.837553 0.659069
vt 0.747029 0.542279
vt 0.745392 0.543101
vt 0.696178 0.568106
vt 0.622690 0.588664
vt 0.138941 0.394968
vt 0.130004 0.334097
vt 0.118561 0.274918
vt 0.837127 0.269592
vt 0.864786 0.348502
vt 0.793018 0.512398
vt 0.678942 0.412214
vt 0.680498 0.411748
vt 0.660793 0.428460
vt 0.623835 0.444535
vt 0.229416 0.250691
vt 0.587721 0.459642
vt 0.271874 0.381127
vt 0.247747 0.327171
vt 0.317086 0.325185
vt 0.257551 0.312597
vt 0.248336 0.252511
vt 0.708667 0.299237
vt 0.729370 0.383723
vt 0.723338 0.372959
vt 0.520267 0.383727
vt 0.469276 0.422934
vt 0.543068 0.440601
vt 0.485047 0.482165
vt 0.164945 0.298324
vt 0.232985 0.344450
vt 0.284448 0.383178
vt 0.292920 0.370473
vt 0.559931 0.263114
vt 0.349012 0.367804
vt 0.369187 0.347262
vt 0.512731 0.327208
vt 0.444916 0.371502
vt 0.390249 0.495818
vt 0.427873 0.527591
vt 0.162436 0.370916
vt 0.226075 0.358892
vt 0.247010 0.344669
vt 0.272932 0.402194
vt 0.272886 0.403013
vt 0.286144 0.443611
vt 0.293661 0.410501
vt 0.338797 0.460700
vt 0.344802 0.549617
vt 0.338959 0.543927
vt 0.346238 0.551420
vt 0.377334 0.590442
vt 0.167416 0.450702
vt 0.247766 0.454147
vt 0.165914 0.400396
vt 0.199407 0.445714
vt 0.235957 0.495580
vt 0.238263 0.457618
vt 0.297980 0.502346
vt 0.296121 0.501047
vt 0.289587 0.537571
vt 0.323212 0.715298
vt 0.250631 0.560187
vt 0.363651 0.709604
vt 0.261943 0.525560
vt 0.256627 0.518595
vt 0.262912 0.524515
vt 0.116199 0.434492
vt 0.299020 0.485575
vt 0.162747 0.407640
vt 0.133015 0.468423
vt 0.131395 0.427342
vt 0.131091 0.428621
vt 0.120893 0.471586
vt 0.123010 0.471072
vt 0.116521 0.522680
vt 0.285491 0.719295
vt 0.116117 0.525896
vt 0.266709 0.594424
vt 0.360697 0.501476
vt 0.360219 0.499710
vt 0.358474 0.490642
vt 0.357428 0.478151
vt 0.357146 0.483387
vt 0.099220 0.388729
vt 0.358433 0.459468
vt 0.100351 0.387739
vt 0.089524 0.397575
vt 0.093428 0.395571
vt 0.078967 0.405341
vt 0.056130 0.412604
vt 0.365483 0.512960
vt 0.050543 0.371281
vt 0.396833 0.487765
vt 0.052430 0.364225
vt 0.395554 0.480575
vt 0.062561 0.360918
vt 0.396319 0.469946
vt 0.070133 0.362599
vt 0.063938 0.362905
vt 0.068313 0.364189
vt 0.067759 0.365821
vt 0.061479 0.370092
vt 0.051656 0.373282
vt 0.397677 0.489893
s 1
usemtl Material.001
f 10/19/1 21/40/2 22/43/3 9/18/4
f 14/27/5 23/44/6 24/45/7 13/25/8
f 11/21/9 14/27/5 13/26/8 12/23/10
f 97/207/11 100/214/12 101/217/13 102/218/14
f 9/17/4 16/31/15 15/28/16 10/20/1
f 17/34/17 20/39/18 7/14/19 3/7/20
f 4/9/21 18/36/22 21/40/2 10/19/1
f 1/1/23 17/33/17 22/42/3 12/24/10
f 6/12/24 19/38/25 23/44/6 14/27/5
f 7/13/19 20/39/18 24/46/7 16/30/15
f 2/4/26 6/12/24 14/27/5 11/21/9
f 5/11/27 1/2/23 12/23/10 13/26/8
f 3/7/20 7/14/19 16/31/15 9/17/4
f 8/15/28 4/10/21 10/20/1 15/28/16
f 11/22/9 12/24/10 22/42/3 21/41/2
f 15/29/16 16/32/15 24/45/7 23/44/6
f 98/209/29 99/211/30 100/214/12 97/207/11
f 1/3/23 5/11/27 20/39/18 17/34/17
f 2/6/26 11/22/9 21/41/2 18/36/22
f 3/8/20 9/18/4 22/43/3 17/35/17
f 8/16/28 15/29/16 23/44/6 19/37/25
f 5/11/27 13/26/8 24/46/7 20/39/18
f 18/36/22 4/9/21 26/48/31 25/47/32
f 4/10/21 8/15/28 27/50/33 26/49/31
f 8/16/28 19/37/25 28/52/34 27/51/33
f 19/38/25 6/12/24 29/54/35 28/53/34
f 6/12/24 2/5/26 30/56/36 29/55/35
f 2/6/26 18/36/22 25/47/32 30/58/36
f 25/47/32 26/48/31 32/62/37 31/59/38
f 26/49/31 27/50/33 33/64/39 32/61/37
f 27/51/33 28/52/34 34/67/40 33/66/39
f 28/53/34 29/54/35 35/69/41 34/68/40
f 29/55/35 30/57/36 36/72/42 35/70/41
f 30/58/36 25/47/32 31/60/38 36/71/42
f 31/59/38 32/62/37 38/76/43 37/74/44
f 32/63/37 33/65/39 39/78/45 38/77/43
f 33/66/39 34/67/40 40/80/46 39/79/45
f 34/68/40 35/69/41 41/82/47 40/81/46
f 35/70/41 36/72/42 42/84/48 41/83/47
f 36/72/42 31/60/38 37/73/44 42/84/48
f 37/74/44 38/76/43 44/87/49 43/85/50
f 38/77/43 39/78/45 45/89/51 44/88/49
f 39/79/45 40/80/46 46/92/52 45/90/51
f 40/81/46 41/82/47 47/95/53 46/93/52
f 41/83/47 42/84/48 48/97/54 47/94/53
f 42/84/48 37/75/44 43/86/50 48/97/54
f 43/85/50 44/87/49 50/103/55 49/100/56
f 44/88/49 45/91/51 51/104/57 50/102/55
f 45/91/51 46/92/52 52/107/58 51/104/57
f 46/93/52 47/95/53 53/111/59 52/109/58
f 47/96/53 48/98/54 54/113/60 53/110/59
f 48/98/54 43/86/50 49/99/56 54/113/60
f 49/100/56 50/103/55 56/118/61 55/116/62
f 50/103/55 51/105/57 57/119/63 56/118/61
f 51/106/57 52/108/58 58/121/64 57/120/63
f 52/109/58 53/111/59 59/122/65 58/121/64
f 53/112/59 54/114/60 60/124/66 59/123/65
f 54/115/60 49/101/56 55/117/62 60/125/66
f 55/117/62 56/118/61 62/129/67 61/126/68
f 56/118/61 57/119/63 63/131/69 62/128/67
f 57/120/63 58/121/64 64/135/70 63/132/69
f 58/121/64 59/122/65 65/136/71 64/135/70
f 59/123/65 60/124/66 66/139/72 65/137/71
f 60/125/66 55/117/62 61/126/68 66/138/72
f 61/127/68 62/129/67 68/142/73 67/140/74
f 62/130/67 63/133/69 69/145/75 68/144/73
f 63/133/69 64/134/70 70/146/76 69/145/75
f 64/135/70 65/136/71 71/149/77 70/147/76
f 65/137/71 66/139/72 72/151/78 71/148/77
f 66/139/72 61/127/68 67/140/74 72/151/78
f 67/141/74 68/143/73 74/154/79 73/153/80
f 68/144/73 69/145/75 75/156/81 74/155/79
f 69/145/75 70/147/76 76/158/82 75/156/81
f 70/147/76 71/149/77 77/160/83 76/159/82
f 71/150/77 72/152/78 78/162/84 77/161/83
f 72/152/78 67/141/74 73/153/80 78/162/84
f 73/153/80 74/154/79 80/166/85 79/163/86
f 74/155/79 75/156/81 81/168/87 80/167/85
f 75/157/81 76/159/82 82/170/88 81/169/87
f 76/159/82 77/160/83 83/171/89 82/170/88
f 77/161/83 78/162/84 84/173/90 83/172/89
f 78/162/84 73/153/80 79/164/86 84/173/90
f 79/165/86 80/166/85 86/178/91 85/176/92
f 80/167/85 81/168/87 87/183/93 86/179/91
f 81/169/87 82/170/88 88/185/94 87/182/93
f 82/170/88 83/171/89 89/188/95 88/186/94
f 83/172/89 84/174/90 90/190/96 89/189/95
f 84/175/90 79/165/86 85/176/92 90/191/96
f 85/177/92 86/180/91 92/196/97 91/194/98
f 86/181/91 87/183/93 93/200/99 92/197/97
f 87/184/93 88/187/94 94/202/100 93/199/99
f 94/202/100 88/187/94 89/188/95 95/204/101
f 95/204/101 89/189/95 90/192/96 96/205/102
f 90/193/96 85/177/92 91/194/98 96/206/102
f 91/195/98 92/198/97 98/210/29 97/208/11
f 92/198/97 93/200/99 99/212/30 98/210/29
f 93/201/99 94/202/100 100/215/12 99/213/30
f 94/203/100 95/204/101 101/217/13 100/216/12
f 95/204/101 96/205/102 102/218/14 101/217/13
f 96/206/102 91/195/98 97/208/11 102/219/14
