# Blender 3.4.1
# www.blender.org
mtllib ruler.mtl
o ruler
v -1.500000 -0.100001 7.500000
v 1.500000 -0.100001 7.500000
v -1.500000 -0.099998 -7.500000
v 1.500000 -0.099998 -7.500000
v -1.500000 -0.096776 7.500000
v 1.500000 -0.096776 7.500000
v -1.500000 -0.096774 -7.500000
v 1.500000 -0.096774 -7.500000
v -0.866250 -0.099599 -7.500000
v -0.866250 -0.099601 7.500000
v -0.866250 0.081823 7.500000
v -0.866250 0.081825 -7.500000
v 0.866250 -0.099599 -7.500000
v 0.866250 -0.099601 7.500000
v 0.866250 0.081823 7.500000
v 0.866250 0.081825 -7.500000
v -0.851601 -0.099599 -7.500000
v -0.851601 -0.099601 7.500000
v -0.851601 0.081823 7.500000
v -0.851601 0.081825 -7.500000
v 0.851601 -0.099599 -7.500000
v 0.851601 -0.099601 7.500000
v 0.851601 0.081823 7.500000
v 0.851601 0.081825 -7.500000
v -0.866250 0.081825 -7.500000
v -0.866250 0.081823 7.500000
v -0.851601 0.081823 7.500000
v -0.851601 0.081825 -7.500000
v 0.851601 0.081823 7.500000
v 0.866250 0.081823 7.500000
v 0.866250 0.081825 -7.500000
v 0.851601 0.081825 -7.500000
v -0.866250 0.096655 -7.500000
v -0.866250 0.096653 7.500000
v -0.851601 0.096653 7.500000
v -0.851601 0.096655 -7.500000
v 0.851601 0.096653 7.500000
v 0.866250 0.096653 7.500000
v 0.866250 0.096655 -7.500000
v 0.851601 0.096655 -7.500000
v -0.866250 0.100001 -7.500000
v -0.866250 0.099999 7.500000
v -0.851601 0.099999 7.500000
v -0.851601 0.100001 -7.500000
v 0.851601 0.099999 7.500000
v 0.866250 0.099999 7.500000
v 0.866250 0.100001 -7.500000
v 0.851601 0.100001 -7.500000
v -1.500000 -0.100001 7.462129
v 1.500000 -0.100001 7.462129
v 1.500000 -0.096776 7.462129
v -1.500000 -0.096776 7.462129
v -0.866250 -0.099599 -7.462129
v -0.866250 0.081823 7.462129
v 0.866250 -0.099599 -7.462129
v 0.866250 0.081823 7.462129
v -0.851601 -0.099599 -7.462129
v -0.851601 0.081823 7.462129
v 0.851601 -0.099599 -7.462129
v 0.851601 0.081823 7.462129
v -0.866250 0.081825 -7.462129
v -0.851601 0.081823 7.462129
v 0.866250 0.081823 7.462129
v 0.851601 0.081823 7.462129
v -0.866250 0.096655 -7.462129
v -0.851601 0.096653 7.462129
v 0.866250 0.096653 7.462129
v 0.851601 0.096653 7.462129
v -0.866250 0.100001 -7.462129
v -0.851601 0.099999 7.462129
v 0.866250 0.099999 7.462129
v 0.851601 0.099999 7.462129
v -1.500000 -0.099998 -7.462129
v 1.500000 -0.099998 -7.462129
v 1.500000 -0.096774 -7.462129
v -1.500000 -0.096774 -7.462129
v -0.866250 -0.099601 7.462129
v -0.866250 0.081825 -7.462129
v 0.866250 -0.099601 7.462129
v 0.866250 0.081825 -7.462129
v -0.851601 -0.099601 7.462129
v -0.851601 0.081825 -7.462129
v 0.851601 -0.099601 7.462129
v 0.851601 0.081825 -7.462129
v -0.866250 0.081823 7.462129
v -0.851601 0.081825 -7.462129
v 0.866250 0.081825 -7.462129
v 0.851601 0.081825 -7.462129
v -0.866250 0.096653 7.462129
v -0.851601 0.096655 -7.462129
v 0.866250 0.096655 -7.462129
v 0.851601 0.096655 -7.462129
v -0.866250 0.099999 7.462129
v -0.851601 0.100001 -7.462129
v 0.866250 0.100001 -7.462129
v 0.851601 0.100001 -7.462129
v 1.500000 -0.099998 -7.462129
v 1.500000 -0.099998 -7.500000
v 1.500000 -0.096774 -7.500000
v 1.500000 -0.096774 -7.462129
v 1.500000 -0.096776 7.462129
v 1.500000 -0.096776 7.500000
v 1.500000 -0.100001 7.500000
v 1.500000 -0.100001 7.462129
v -1.500000 -0.100001 7.462129
v -1.500000 -0.100001 7.500000
v -1.500000 -0.096776 7.500000
v -1.500000 -0.096776 7.462129
v -1.500000 -0.096774 -7.462129
v -1.500000 -0.096774 -7.500000
v -1.500000 -0.099998 -7.500000
v -1.500000 -0.099998 -7.462129
v -1.500000 -0.100001 6.666131
v 1.500000 -0.100001 6.666131
v 1.500000 -0.096776 6.666131
v -1.500000 -0.096776 6.666131
v -0.866250 -0.099599 -6.666131
v -0.866250 0.081823 6.666131
v 0.866250 -0.099599 -6.666131
v 0.866250 0.081823 6.666131
v -0.851601 -0.099599 -6.666131
v -0.851601 0.081823 6.666131
v 0.851601 -0.099599 -6.666131
v 0.851601 0.081823 6.666131
v -0.866250 0.081825 -6.666131
v -0.851601 0.081823 6.666131
v 0.866250 0.081823 6.666131
v 0.851601 0.081823 6.666131
v -0.866250 0.096655 -6.666131
v -0.851601 0.096653 6.666131
v 0.866250 0.096653 6.666131
v 0.851601 0.096653 6.666131
v -0.866250 0.100001 -6.666131
v -0.851601 0.099999 6.666131
v 0.866250 0.099999 6.666131
v 0.851601 0.099999 6.666131
v 1.500000 -0.096774 -6.666131
v 1.500000 -0.099998 -6.666131
v -1.500000 -0.096776 6.666131
v -1.500000 -0.100001 6.666131
v -1.500000 -0.099998 -6.666131
v 1.500000 -0.099998 -6.666131
v 1.500000 -0.096774 -6.666131
v -1.500000 -0.096774 -6.666131
v -0.866250 -0.099601 6.666131
v -0.866250 0.081825 -6.666131
v 0.866250 -0.099601 6.666131
v 0.866250 0.081825 -6.666131
v -0.851601 -0.099601 6.666131
v -0.851601 0.081825 -6.666131
v 0.851601 -0.099601 6.666131
v 0.851601 0.081825 -6.666131
v -0.866250 0.081823 6.666131
v -0.851601 0.081825 -6.666131
v 0.866250 0.081825 -6.666131
v 0.851601 0.081825 -6.666131
v -0.866250 0.096653 6.666131
v -0.851601 0.096655 -6.666131
v 0.866250 0.096655 -6.666131
v 0.851601 0.096655 -6.666131
v -0.866250 0.099999 6.666131
v -0.851601 0.100001 -6.666131
v 0.866250 0.100001 -6.666131
v 0.851601 0.100001 -6.666131
v 1.500000 -0.096776 6.666131
v 1.500000 -0.100001 6.666131
v -1.500000 -0.096774 -6.666131
v -1.500000 -0.099998 -6.666131
v 1.500000 -0.100001 7.500000
v -1.500000 -0.100001 7.500000
v 1.500000 -0.099998 -7.500000
v -1.500000 -0.099998 -7.500000
v -0.866250 -0.099601 7.500000
v 0.866250 -0.099599 -7.500000
v 0.866250 -0.099601 7.500000
v -0.866250 -0.099599 -7.500000
v -0.851601 -0.099601 7.500000
v 0.851601 -0.099599 -7.500000
v 0.851601 -0.099601 7.500000
v -0.851601 -0.099599 -7.500000
v 1.500000 -0.096776 7.462129
v -1.500000 -0.096774 -7.462129
v 1.500000 -0.099998 -7.462129
v -1.500000 -0.100001 7.462129
v 1.500000 -0.099998 -7.500000
v 1.500000 -0.096776 7.500000
v -1.500000 -0.100001 7.500000
v -1.500000 -0.096774 -7.500000
v 1.500000 -0.096776 6.666131
v -1.500000 -0.096774 -6.666131
v 1.500000 -0.096774 -6.666131
v -1.500000 -0.096776 6.666131
v 1.500000 -0.096776 7.500000
v -1.500000 -0.096776 7.500000
v 1.500000 -0.096774 -7.500000
v -1.500000 -0.096774 -7.500000
v -0.866250 0.081823 7.500000
v 0.866250 0.081825 -7.500000
v 0.866250 0.081823 7.500000
v -0.866250 0.081825 -7.500000
v -0.851601 0.081823 7.500000
v 0.851601 0.081825 -7.500000
v 0.851601 0.081823 7.500000
v -0.851601 0.081825 -7.500000
v 1.500000 -0.100001 7.462129
v -1.500000 -0.099998 -7.462129
v 1.500000 -0.096774 -7.462129
v -1.500000 -0.096776 7.462129
v 1.500000 -0.096774 -7.500000
v 1.500000 -0.100001 7.500000
v -1.500000 -0.096776 7.500000
v -1.500000 -0.099998 -7.500000
v 1.500000 -0.100001 6.666131
v -1.500000 -0.099998 -6.666131
v 1.500000 -0.099998 -6.666131
v -1.500000 -0.100001 6.666131
v -1.486571 -0.099798 -7.500000
v 1.486571 -0.099801 7.500000
v -1.183125 -0.007476 7.500000
v 1.183125 -0.007474 -7.500000
v 1.486571 -0.099798 -7.500000
v -1.486571 -0.099801 7.500000
v 1.183125 -0.007476 7.500000
v -1.183125 -0.007474 -7.500000
v -1.486571 -0.099801 7.462129
v -1.183125 -0.007476 7.462129
v 1.486571 -0.099798 -7.462129
v 1.183125 -0.007476 7.462129
v -1.486571 -0.099798 -7.462129
v -1.183125 -0.007474 -7.462129
v 1.486571 -0.099801 7.462129
v 1.183125 -0.007474 -7.462129
v -1.486571 -0.099801 6.666131
v -1.183125 -0.007476 6.666131
v 1.486571 -0.099798 -6.666131
v 1.183125 -0.007476 6.666131
v -1.486571 -0.099798 -6.666131
v -1.183125 -0.007474 -6.666131
v 1.486571 -0.099801 6.666131
v 1.183125 -0.007474 -6.666131
v -1.486571 -0.099801 7.500000
v 1.486571 -0.099798 -7.500000
v 1.486571 -0.099801 7.500000
v -1.486571 -0.099798 -7.500000
v -1.183125 -0.007476 7.500000
v 1.183125 -0.007474 -7.500000
v 1.183125 -0.007476 7.500000
v -1.183125 -0.007474 -7.500000
vn 0.0149 -0.9999 -0.0000
vn -0.2712 0.9625 -0.0000
vn -0.0000 -0.0000 1.0000
vn -0.0003 -1.0000 -0.0000
vn 0.2712 0.9625 -0.0000
vn -0.0000 -1.0000 -0.0000
vn -0.0000 1.0000 -0.0000
vn -1.0000 -0.0000 -0.0000
vn 1.0000 -0.0000 -0.0000
vn -0.0000 -0.0000 -1.0000
vn -0.0149 -0.9999 -0.0000
vn 0.0003 -1.0000 -0.0000
vt 0.999361 0.245048
vt 0.999361 0.009358
vt 0.999361 0.807327
vt 0.999361 0.990642
vt 0.000639 0.245048
vt 0.000639 0.009358
vt 0.000639 0.990642
vt 0.000639 0.807327
vt 0.999361 0.009358
vt 0.999361 0.990642
vt 0.000639 0.009358
vt 0.000639 0.990642
vt 0.000639 0.216654
vt 0.000639 0.363830
vt 0.999361 0.363830
vt 0.999361 0.216654
vt 0.999361 0.216654
vt 0.000639 0.216654
vt 0.000639 0.688546
vt 0.000639 0.783346
vt 0.999361 0.783346
vt 0.999361 0.688546
vt 0.999361 0.783346
vt 0.000639 0.783346
vt 0.000639 0.366575
vt 0.000639 0.221446
vt 0.999361 0.221446
vt 0.999361 0.366575
vt 0.999361 0.221446
vt 0.000639 0.221446
vt 0.000639 0.685800
vt 0.000639 0.778554
vt 0.999361 0.778554
vt 0.999361 0.685800
vt 0.999361 0.778554
vt 0.000639 0.778554
vt 0.000639 0.216654
vt 0.999361 0.216654
vt 0.999361 0.221446
vt 0.000639 0.221446
vt 0.999361 0.778554
vt 0.999361 0.783346
vt 0.000639 0.783346
vt 0.000639 0.778554
vt 0.000639 0.216654
vt 0.999361 0.216654
vt 0.999361 0.221446
vt 0.000639 0.221446
vt 0.999361 0.778554
vt 0.999361 0.783346
vt 0.000639 0.783346
vt 0.000639 0.778554
vt 0.000639 0.216654
vt 0.999361 0.216654
vt 0.999361 0.221446
vt 0.000639 0.221446
vt 0.999361 0.778554
vt 0.999361 0.783346
vt 0.000639 0.783346
vt 0.000639 0.778554
vt 0.996839 0.245048
vt 0.996839 0.009358
vt 0.996840 0.990642
vt 0.996840 0.807327
vt 0.996840 0.990642
vt 0.996839 0.009358
vt 0.003161 0.363830
vt 0.996839 0.216654
vt 0.003161 0.688546
vt 0.996840 0.783346
vt 0.003161 0.366575
vt 0.996839 0.221446
vt 0.003161 0.685800
vt 0.996840 0.778554
vt 0.003161 0.216654
vt 0.996839 0.221446
vt 0.996840 0.783346
vt 0.996840 0.778554
vt 0.003161 0.216654
vt 0.996839 0.221446
vt 0.996840 0.783346
vt 0.996840 0.778554
vt 0.003161 0.216654
vt 0.996839 0.221446
vt 0.996840 0.783346
vt 0.996840 0.778554
vt 0.003160 0.009358
vt 0.003160 0.245048
vt 0.003161 0.990642
vt 0.003161 0.807327
vt 0.003161 0.990642
vt 0.003160 0.009358
vt 0.996839 0.363830
vt 0.003161 0.216654
vt 0.996840 0.688546
vt 0.003161 0.783346
vt 0.996839 0.366575
vt 0.003161 0.221446
vt 0.996840 0.685800
vt 0.003161 0.778554
vt 0.996839 0.216654
vt 0.003161 0.221446
vt 0.003161 0.783346
vt 0.003161 0.778554
vt 0.996839 0.216654
vt 0.003161 0.221446
vt 0.003161 0.783346
vt 0.003161 0.778554
vt 0.996839 0.216654
vt 0.003161 0.221446
vt 0.003161 0.783346
vt 0.003161 0.778554
vt 0.003161 0.990642
vt 0.000639 0.990642
vt 0.000639 0.990642
vt 0.003161 0.990642
vt 0.996840 0.990642
vt 0.999361 0.990642
vt 0.999361 0.990642
vt 0.996840 0.990642
vt 0.996839 0.009358
vt 0.999361 0.009358
vt 0.999361 0.009358
vt 0.996839 0.009358
vt 0.003160 0.009358
vt 0.000639 0.009358
vt 0.000639 0.009358
vt 0.003160 0.009358
vt 0.943840 0.245048
vt 0.943840 0.009358
vt 0.943841 0.807327
vt 0.943841 0.990642
vt 0.943841 0.990642
vt 0.943840 0.009358
vt 0.056159 0.363830
vt 0.943841 0.216654
vt 0.056159 0.688546
vt 0.943841 0.783346
vt 0.056159 0.366575
vt 0.943841 0.221446
vt 0.056159 0.685800
vt 0.943841 0.778554
vt 0.056159 0.216654
vt 0.943841 0.221446
vt 0.943841 0.783346
vt 0.943841 0.778554
vt 0.056159 0.216654
vt 0.943841 0.221446
vt 0.943841 0.783346
vt 0.943841 0.778554
vt 0.056159 0.216654
vt 0.943841 0.221446
vt 0.943841 0.783346
vt 0.943841 0.778554
vt 0.056160 0.990642
vt 0.056160 0.990642
vt 0.943840 0.009358
vt 0.943840 0.009358
vt 0.056159 0.245048
vt 0.056159 0.009358
vt 0.056160 0.807327
vt 0.056160 0.990642
vt 0.056160 0.990642
vt 0.056159 0.009358
vt 0.943841 0.363830
vt 0.056159 0.216654
vt 0.943841 0.688546
vt 0.056159 0.783346
vt 0.943841 0.366575
vt 0.056159 0.221446
vt 0.943841 0.685800
vt 0.056159 0.778554
vt 0.943841 0.216654
vt 0.056159 0.221446
vt 0.056159 0.783346
vt 0.056159 0.778554
vt 0.943841 0.216654
vt 0.056159 0.221446
vt 0.056159 0.783346
vt 0.056159 0.778554
vt 0.943841 0.216654
vt 0.056159 0.221446
vt 0.056159 0.783346
vt 0.056159 0.778554
vt 0.943841 0.990642
vt 0.943841 0.990642
vt 0.056159 0.009358
vt 0.056159 0.009358
vt 0.999361 0.990642
vt 0.999361 0.009358
vt 0.000639 0.990642
vt 0.000639 0.009358
vt 0.999361 0.216654
vt 0.000639 0.783346
vt 0.999361 0.783346
vt 0.000639 0.216654
vt 0.999361 0.221446
vt 0.000639 0.778554
vt 0.999361 0.778554
vt 0.000639 0.221446
vt 0.996840 0.990642
vt 0.003160 0.009358
vt 0.003161 0.990642
vt 0.996839 0.009358
vt 0.000639 0.990642
vt 0.999361 0.990642
vt 0.999361 0.009358
vt 0.000639 0.009358
vt 0.943841 0.990642
vt 0.056159 0.009358
vt 0.056160 0.990642
vt 0.943840 0.009358
vt 0.999361 0.990642
vt 0.999361 0.009358
vt 0.000639 0.990642
vt 0.000639 0.009358
vt 0.999361 0.216654
vt 0.000639 0.783346
vt 0.999361 0.783346
vt 0.000639 0.216654
vt 0.999361 0.221446
vt 0.000639 0.778554
vt 0.999361 0.778554
vt 0.000639 0.221446
vt 0.996840 0.990642
vt 0.003160 0.009358
vt 0.003161 0.990642
vt 0.996839 0.009358
vt 0.000639 0.990642
vt 0.999361 0.990642
vt 0.999361 0.009358
vt 0.000639 0.009358
vt 0.943841 0.990642
vt 0.056159 0.009358
vt 0.056160 0.990642
vt 0.943840 0.009358
vt 0.000639 0.013751
vt 0.000639 0.247565
vt 0.999361 0.986249
vt 0.999361 0.804810
vt 0.999361 0.113006
vt 0.000639 0.886994
vt 0.000639 0.986249
vt 0.000639 0.804810
vt 0.999361 0.247565
vt 0.999361 0.013751
vt 0.999361 0.886994
vt 0.000639 0.113006
vt 0.996839 0.247565
vt 0.996839 0.113006
vt 0.003161 0.804810
vt 0.996840 0.886994
vt 0.003160 0.247565
vt 0.003160 0.113006
vt 0.996840 0.804810
vt 0.003161 0.886994
vt 0.943840 0.247565
vt 0.943841 0.113006
vt 0.056160 0.804810
vt 0.943841 0.886994
vt 0.056159 0.247565
vt 0.056159 0.113006
vt 0.943841 0.804810
vt 0.056160 0.886994
vt 0.999361 0.013751
vt 0.000639 0.986249
vt 0.999361 0.986249
vt 0.000639 0.013751
vt 0.999361 0.113006
vt 0.000639 0.886994
vt 0.999361 0.886994
vt 0.000639 0.113006
s 0
usemtl Ruler_Plastic
f 222/245/1 1/1/1 49/61/1 225/249/1
f 52/66/2 5/9/2 219/241/2 226/250/2
f 1/2/3 222/246/3 241/265/3 170/190/3
f 210/230/3 103/119/3 104/120/3 205/225/3
f 4/7/3 221/243/3 242/266/3 171/191/3
f 212/232/3 111/127/3 112/128/3 206/226/3
f 55/69/4 13/19/4 221/244/4 227/251/4
f 56/70/5 15/23/5 223/247/5 228/252/5
f 14/21/3 218/239/3 243/267/3 175/195/3
f 9/13/3 217/237/3 244/268/3 176/196/3
f 53/67/6 9/14/6 17/25/6 57/71/6
f 93/109/7 42/54/7 43/55/7 70/84/7
f 173/193/3 10/16/3 18/27/3 177/197/3
f 174/194/3 13/20/3 21/32/3 178/198/3
f 59/73/6 21/31/6 13/19/6 55/69/6
f 72/86/7 45/57/7 46/58/7 71/85/7
f 179/199/3 22/33/3 14/21/3 175/195/3
f 180/200/3 17/26/3 9/13/3 176/196/3
f 57/71/6 17/25/6 21/31/6 59/73/6
f 58/72/7 19/29/7 23/35/7 60/74/7
f 177/197/3 18/27/3 22/33/3 179/199/3
f 178/198/3 21/32/3 17/26/3 180/200/3
f 12/18/3 78/94/3 61/75/3 25/37/3
f 27/39/3 26/38/3 11/17/3 19/29/3
f 19/29/3 58/72/3 62/76/3 27/39/3
f 25/37/3 28/40/3 20/30/3 12/18/3
f 30/42/3 29/41/3 23/35/3 15/23/3
f 15/23/3 56/70/3 63/77/3 30/42/3
f 32/44/3 31/43/3 16/24/3 24/36/3
f 24/36/3 84/100/3 88/104/3 32/44/3
f 33/45/8 25/37/8 61/75/8 65/79/8
f 35/47/3 34/46/3 26/38/3 27/39/3
f 35/47/9 27/39/9 62/76/9 66/80/9
f 33/45/10 36/48/10 28/40/10 25/37/10
f 38/50/3 37/49/3 29/41/3 30/42/3
f 38/50/9 30/42/9 63/77/9 67/81/9
f 40/52/10 39/51/10 31/43/10 32/44/10
f 40/52/8 32/44/8 88/104/8 92/108/8
f 41/53/8 33/45/8 65/79/8 69/83/8
f 43/55/3 42/54/3 34/46/3 35/47/3
f 43/55/9 35/47/9 66/80/9 70/84/9
f 41/53/10 44/56/10 36/48/10 33/45/10
f 46/58/3 45/57/3 37/49/3 38/50/3
f 46/58/9 38/50/9 67/81/9 71/85/9
f 48/60/10 47/59/10 39/51/10 40/52/10
f 48/60/8 40/52/8 92/108/8 96/112/8
f 229/253/1 73/88/1 3/5/1 217/238/1
f 230/254/2 78/94/2 12/18/2 224/248/2
f 183/203/3 97/113/3 98/114/3 185/205/3
f 184/204/3 105/121/3 106/122/3 187/207/3
f 231/255/11 50/64/11 2/3/11 218/240/11
f 232/256/5 75/91/5 8/12/5 220/242/5
f 77/93/6 81/97/6 18/28/6 10/15/6
f 69/83/7 94/110/7 44/56/7 41/53/7
f 83/99/6 79/95/6 14/22/6 22/34/6
f 96/112/7 95/111/7 47/59/7 48/60/7
f 81/97/6 83/99/6 22/34/6 18/28/6
f 82/98/7 84/100/7 24/36/7 20/30/7
f 54/68/3 11/17/3 26/38/3 85/101/3
f 82/98/3 20/30/3 28/40/3 86/102/3
f 80/96/3 16/24/3 31/43/3 87/103/3
f 60/74/3 23/35/3 29/41/3 64/78/3
f 89/105/8 85/101/8 26/38/8 34/46/8
f 90/106/9 86/102/9 28/40/9 36/48/9
f 91/107/9 87/103/9 31/43/9 39/51/9
f 68/82/8 64/78/8 29/41/8 37/49/8
f 93/109/8 89/105/8 34/46/8 42/54/8
f 94/110/9 90/106/9 36/48/9 44/56/9
f 95/111/9 91/107/9 39/51/9 47/59/9
f 72/86/8 68/82/8 37/49/8 45/57/8
f 225/249/1 49/61/1 113/129/1 233/257/1
f 226/250/2 54/68/2 118/136/2 234/258/2
f 205/225/3 104/120/3 166/186/3 213/233/3
f 206/226/3 112/128/3 168/188/3 214/234/3
f 227/251/11 74/90/11 142/161/11 235/259/11
f 228/252/5 51/65/5 115/133/5 236/260/5
f 53/67/6 57/71/6 121/139/6 117/135/6
f 93/109/7 70/84/7 134/152/7 161/181/7
f 59/73/6 55/69/6 119/137/6 123/141/6
f 72/86/7 71/85/7 135/153/7 136/154/7
f 57/71/6 59/73/6 123/141/6 121/139/6
f 58/72/7 60/74/7 124/142/7 122/140/7
f 78/94/3 146/166/3 125/143/3 61/75/3
f 58/72/3 122/140/3 126/144/3 62/76/3
f 56/70/3 120/138/3 127/145/3 63/77/3
f 84/100/3 152/172/3 156/176/3 88/104/3
f 65/79/8 61/75/8 125/143/8 129/147/8
f 66/80/9 62/76/9 126/144/9 130/148/9
f 67/81/9 63/77/9 127/145/9 131/149/9
f 92/108/8 88/104/8 156/176/8 160/180/8
f 69/83/8 65/79/8 129/147/8 133/151/8
f 70/84/9 66/80/9 130/148/9 134/152/9
f 71/85/9 67/81/9 131/149/9 135/153/9
f 96/112/8 92/108/8 160/180/8 164/184/8
f 98/114/3 97/113/3 74/89/3 4/7/3
f 4/7/3 171/191/3 185/205/3 98/114/3
f 100/116/3 99/115/3 8/12/3 75/91/3
f 75/91/3 143/163/3 137/155/3 100/116/3
f 102/118/3 101/117/3 51/65/3 6/10/3
f 6/10/3 193/213/3 186/206/3 102/118/3
f 104/120/3 103/119/3 2/4/3 50/63/3
f 50/63/3 114/132/3 166/186/3 104/120/3
f 106/122/3 105/121/3 49/62/3 1/2/3
f 1/2/3 170/190/3 187/207/3 106/122/3
f 108/124/3 107/123/3 5/9/3 52/66/3
f 52/66/3 116/134/3 139/157/3 108/124/3
f 110/126/3 109/125/3 76/92/3 7/11/3
f 7/11/3 196/216/3 188/208/3 110/126/3
f 112/128/3 111/127/3 3/6/3 73/87/3
f 73/87/3 141/160/3 168/188/3 112/128/3
f 237/261/1 141/159/1 73/88/1 229/253/1
f 238/262/2 146/166/2 78/94/2 230/254/2
f 215/235/3 138/156/3 97/113/3 183/203/3
f 216/236/3 140/158/3 105/121/3 184/204/3
f 239/263/11 114/131/11 50/64/11 231/255/11
f 240/264/5 143/163/5 75/91/5 232/256/5
f 145/165/6 149/169/6 81/97/6 77/93/6
f 133/151/7 162/182/7 94/110/7 69/83/7
f 151/171/6 147/167/6 79/95/6 83/99/6
f 164/184/7 163/183/7 95/111/7 96/112/7
f 149/169/6 151/171/6 83/99/6 81/97/6
f 150/170/7 152/172/7 84/100/7 82/98/7
f 118/136/3 54/68/3 85/101/3 153/173/3
f 150/170/3 82/98/3 86/102/3 154/174/3
f 148/168/3 80/96/3 87/103/3 155/175/3
f 124/142/3 60/74/3 64/78/3 128/146/3
f 157/177/8 153/173/8 85/101/8 89/105/8
f 158/178/9 154/174/9 86/102/9 90/106/9
f 159/179/9 155/175/9 87/103/9 91/107/9
f 132/150/8 128/146/8 64/78/8 68/82/8
f 161/181/8 157/177/8 89/105/8 93/109/8
f 162/182/9 158/178/9 90/106/9 94/110/9
f 163/183/9 159/179/9 91/107/9 95/111/9
f 136/154/8 132/150/8 68/82/8 72/86/8
f 115/133/3 51/65/3 101/117/3 165/185/3
f 142/162/3 74/89/3 97/113/3 138/156/3
f 144/164/3 76/92/3 109/125/3 167/187/3
f 113/130/3 49/62/3 105/121/3 140/158/3
f 233/257/1 113/129/1 141/159/1 237/261/1
f 234/258/2 118/136/2 146/166/2 238/262/2
f 213/233/3 166/186/3 138/156/3 215/235/3
f 214/234/3 168/188/3 140/158/3 216/236/3
f 235/259/11 142/161/11 114/131/11 239/263/11
f 236/260/5 115/133/5 143/163/5 240/264/5
f 145/165/6 117/135/6 121/139/6 149/169/6
f 133/151/7 161/181/7 134/152/7 162/182/7
f 151/171/6 123/141/6 119/137/6 147/167/6
f 164/184/7 136/154/7 135/153/7 163/183/7
f 149/169/6 121/139/6 123/141/6 151/171/6
f 150/170/7 122/140/7 124/142/7 152/172/7
f 153/173/3 125/143/3 146/166/3 118/136/3
f 154/174/3 126/144/3 122/140/3 150/170/3
f 155/175/3 127/145/3 120/138/3 148/168/3
f 128/146/3 156/176/3 152/172/3 124/142/3
f 157/177/8 129/147/8 125/143/8 153/173/8
f 158/178/9 130/148/9 126/144/9 154/174/9
f 159/179/9 131/149/9 127/145/9 155/175/9
f 132/150/8 160/180/8 156/176/8 128/146/8
f 161/181/8 133/151/8 129/147/8 157/177/8
f 162/182/9 134/152/9 130/148/9 158/178/9
f 163/183/9 135/153/9 131/149/9 159/179/9
f 136/154/8 164/184/8 160/180/8 132/150/8
f 165/185/3 137/155/3 143/163/3 115/133/3
f 138/156/3 166/186/3 114/132/3 142/162/3
f 167/187/3 139/157/3 116/134/3 144/164/3
f 140/158/3 168/188/3 141/160/3 113/130/3
f 197/217/3 11/17/3 219/241/3 245/269/3
f 186/206/3 181/201/3 101/117/3 102/118/3
f 198/218/3 16/24/3 220/242/3 246/270/3
f 188/208/3 182/202/3 109/125/3 110/126/3
f 193/213/3 6/10/3 223/247/3 247/271/3
f 196/216/3 7/11/3 224/248/3 248/272/3
f 197/217/3 201/221/3 19/29/3 11/17/3
f 198/218/3 202/222/3 24/36/3 16/24/3
f 203/223/3 199/219/3 15/23/3 23/35/3
f 204/224/3 200/220/3 12/18/3 20/30/3
f 201/221/3 203/223/3 23/35/3 19/29/3
f 202/222/3 204/224/3 20/30/3 24/36/3
f 207/227/3 209/229/3 99/115/3 100/116/3
f 208/228/3 211/231/3 107/123/3 108/124/3
f 181/201/3 189/209/3 165/185/3 101/117/3
f 182/202/3 190/210/3 167/187/3 109/125/3
f 195/215/3 8/12/3 99/115/3 209/229/3
f 169/189/3 2/4/3 103/119/3 210/230/3
f 194/214/3 5/9/3 107/123/3 211/231/3
f 172/192/3 3/6/3 111/127/3 212/232/3
f 191/211/3 207/227/3 100/116/3 137/155/3
f 192/212/3 208/228/3 108/124/3 139/157/3
f 189/209/3 191/211/3 137/155/3 165/185/3
f 190/210/3 192/212/3 139/157/3 167/187/3
f 245/269/3 241/265/3 173/193/3 197/217/3
f 186/206/9 210/230/9 205/225/9 181/201/9
f 246/270/10 242/266/10 174/194/10 198/218/10
f 188/208/8 212/232/8 206/226/8 182/202/8
f 243/267/3 169/189/3 193/213/3 247/271/3
f 244/268/10 172/192/10 196/216/10 248/272/10
f 197/217/3 173/193/3 177/197/3 201/221/3
f 198/218/10 174/194/10 178/198/10 202/222/10
f 203/223/3 179/199/3 175/195/3 199/219/3
f 204/224/10 180/200/10 176/196/10 200/220/10
f 201/221/3 177/197/3 179/199/3 203/223/3
f 202/222/10 178/198/10 180/200/10 204/224/10
f 207/227/9 183/203/9 185/205/9 209/229/9
f 208/228/8 184/204/8 187/207/8 211/231/8
f 181/201/9 205/225/9 213/233/9 189/209/9
f 182/202/8 206/226/8 214/234/8 190/210/8
f 209/229/3 185/205/3 171/191/3 195/215/3
f 210/230/3 186/206/3 193/213/3 169/189/3
f 211/231/3 187/207/3 170/190/3 194/214/3
f 212/232/3 188/208/3 196/216/3 172/192/3
f 191/211/9 215/235/9 183/203/9 207/227/9
f 192/212/8 216/236/8 184/204/8 208/228/8
f 189/209/9 213/233/9 215/235/9 191/211/9
f 190/210/8 214/234/8 216/236/8 192/212/8
f 222/245/12 225/249/12 77/93/12 10/15/12
f 226/250/2 219/241/2 11/17/2 54/68/2
f 222/246/3 10/16/3 173/193/3 241/265/3
f 221/243/3 13/20/3 174/194/3 242/266/3
f 227/251/11 221/244/11 4/8/11 74/90/11
f 228/252/5 223/247/5 6/10/5 51/65/5
f 218/239/3 2/4/3 169/189/3 243/267/3
f 217/237/3 3/6/3 172/192/3 244/268/3
f 229/253/12 217/238/12 9/14/12 53/67/12
f 230/254/2 224/248/2 7/11/2 76/92/2
f 231/255/4 218/240/4 14/22/4 79/95/4
f 232/256/5 220/242/5 16/24/5 80/96/5
f 225/249/12 233/257/12 145/165/12 77/93/12
f 226/250/2 234/258/2 116/134/2 52/66/2
f 227/251/4 235/259/4 119/137/4 55/69/4
f 228/252/5 236/260/5 120/138/5 56/70/5
f 237/261/12 229/253/12 53/67/12 117/135/12
f 238/262/2 230/254/2 76/92/2 144/164/2
f 239/263/4 231/255/4 79/95/4 147/167/4
f 240/264/5 232/256/5 80/96/5 148/168/5
f 233/257/12 237/261/12 117/135/12 145/165/12
f 234/258/2 238/262/2 144/164/2 116/134/2
f 235/259/4 239/263/4 147/167/4 119/137/4
f 236/260/5 240/264/5 148/168/5 120/138/5
f 219/241/3 5/9/3 194/214/3 245/269/3
f 220/242/3 8/12/3 195/215/3 246/270/3
f 223/247/3 15/23/3 199/219/3 247/271/3
f 224/248/3 12/18/3 200/220/3 248/272/3
f 241/265/3 245/269/3 194/214/3 170/190/3
f 242/266/10 246/270/10 195/215/10 171/191/10
f 175/195/3 243/267/3 247/271/3 199/219/3
f 176/196/10 244/268/10 248/272/10 200/220/10
