# Blender 3.4.1
# www.blender.org
mtllib basura.mtl
o BOX2
v 0.148805 0.159265 0.156238
v 0.005820 0.159265 0.360442
v 0.302793 0.159265 0.264062
v 0.159808 0.159265 0.468266
v 0.148805 0.307309 0.156238
v 0.005820 0.307309 0.360442
v 0.302793 0.307309 0.264062
v 0.159808 0.307309 0.468266
v 0.075929 0.359251 0.409533
v 0.218914 0.359251 0.205329
v 0.255085 0.270774 0.327640
v 0.105378 0.270774 0.222814
v 0.148805 0.307309 0.156238
v 0.302793 0.307309 0.264062
v 0.159808 0.307309 0.468266
v 0.005820 0.307309 0.360442
v 0.051091 0.262188 0.298697
v 0.202346 0.262188 0.404607
v 0.302793 0.307309 0.264062
v 0.159808 0.307309 0.468266
v 0.088681 0.319901 0.418462
v 0.231667 0.319901 0.214258
v 0.218914 0.359251 0.205329
v 0.075928 0.359251 0.409533
v 0.005820 0.307309 0.360442
v 0.148805 0.307309 0.156238
v 0.231667 0.319901 0.214258
v 0.302793 0.307309 0.264062
v 0.159808 0.307309 0.468266
v 0.088681 0.319901 0.418462
v 0.148805 0.307309 0.156238
v 0.005820 0.307309 0.360442
v 0.005820 0.159265 0.360442
v 0.148805 0.159265 0.156238
v 0.302793 0.307309 0.264062
v 0.148805 0.307309 0.156238
v 0.148805 0.159265 0.156238
v 0.302793 0.159265 0.264062
v 0.159808 0.307309 0.468266
v 0.302793 0.307309 0.264062
v 0.302793 0.159265 0.264062
v 0.159808 0.159265 0.468266
v 0.005820 0.307309 0.360442
v 0.159808 0.307309 0.468266
v 0.159808 0.159265 0.468266
v 0.005820 0.159265 0.360442
v 0.302793 0.159265 0.264062
v 0.148805 0.159265 0.156238
v 0.005820 0.159265 0.360442
v 0.159808 0.159265 0.468266
v 0.017154 0.000000 0.396507
v 0.287674 0.000000 0.396507
v 0.017154 0.000000 0.207927
v 0.287674 0.000000 0.207927
v 0.017154 0.158783 0.396507
v 0.287674 0.158783 0.396507
v 0.017154 0.158783 0.207927
v 0.287674 0.158783 0.207927
v -0.046467 0.165359 0.080427
v -0.075432 0.021863 0.088222
v -0.153666 0.161715 -0.052339
v -0.217508 0.290857 0.050734
v -0.151974 0.251779 0.182549
v -0.142338 0.104378 0.238029
v -0.196948 -0.009160 -0.025075
v -0.279805 0.188258 -0.036636
v -0.351628 0.207243 0.116616
v -0.309143 0.161286 0.206450
v -0.270632 -0.007673 0.186612
v -0.354064 0.038184 0.064921
v -0.222011 0.245107 0.066062
v -0.188737 0.339637 0.011426
v -0.188676 0.348191 0.082315
v -0.250138 0.343538 0.025988
vn -0.0000 -1.0000 -0.0000
vn -0.4250 0.8549 -0.2976
vn -0.8192 -0.0000 -0.5736
vn -0.5736 -0.0000 0.8192
vn 0.8192 -0.0000 0.5736
vn 0.5736 -0.0000 -0.8192
vn -0.2396 0.9085 0.3423
vn 0.2913 0.8615 -0.4160
vn 0.1176 0.9896 0.0823
vn 0.4250 -0.8549 0.2976
vn -0.1176 -0.9896 -0.0823
vn -0.0000 1.0000 -0.0000
vn -0.0000 -0.0000 1.0000
vn 1.0000 -0.0000 -0.0000
vn -0.0000 -0.0000 -1.0000
vn -1.0000 -0.0000 -0.0000
vn 0.9587 0.2690 -0.0921
vn 0.7706 -0.6373 -0.0021
vn 0.3995 0.2142 -0.8914
vn -0.0209 0.9735 -0.2277
vn 0.3151 0.7592 0.5696
vn 0.4037 -0.1394 0.9042
vn -0.2978 -0.7733 0.5597
vn 0.0650 -0.7484 -0.6600
vn -0.4876 0.3244 -0.8106
vn -0.8481 0.5119 0.1368
vn -0.5760 0.2240 0.7862
vn -0.8580 -0.4726 -0.2013
vn -0.1151 -0.9654 0.2342
vn -0.8383 0.4259 -0.3404
vn 0.5722 0.2940 -0.7656
vn 0.4272 0.5115 0.7456
vt 0.956583 0.191199
vt 0.788151 0.449898
vt 0.953000 0.319459
vt 0.785451 0.191143
vt 0.952978 0.449898
vt 0.788223 0.319459
vt 0.956536 0.307918
vt 0.952978 0.449898
vt 0.788223 0.319459
vt 0.785404 0.307862
vt 0.953000 0.319459
vt 0.788151 0.449898
vt 0.788254 0.191504
vt 0.788151 0.566883
vt 0.953000 0.436428
vt 0.952998 0.191504
vt 0.952978 0.566883
vt 0.788223 0.436428
vt 0.952978 0.566883
vt 0.788223 0.436428
vt 0.953000 0.436428
vt 0.788151 0.566883
vt 0.952998 0.247858
vt 0.788254 0.247858
vt 0.950836 0.251311
vt 0.790816 0.251005
vt 0.788326 0.307118
vt 0.952922 0.307433
vt 0.788261 0.247828
vt 0.952956 0.247425
vt 0.951227 0.191221
vt 0.789454 0.191617
vt 0.952939 0.251247
vt 0.788299 0.251247
vt 0.788299 0.307408
vt 0.952939 0.307408
vt 0.788254 0.191504
vt 0.952998 0.191504
vt 0.952998 0.247858
vt 0.788254 0.247858
vt 0.952939 0.251247
vt 0.952939 0.307408
vt 0.788299 0.307408
vt 0.788299 0.251247
vt 0.788151 0.319484
vt 0.952978 0.319484
vt 0.952978 0.436469
vt 0.788151 0.436469
vt 0.788223 0.319459
vt 0.953000 0.319459
vt 0.953000 0.436428
vt 0.788223 0.436428
vt 0.788151 0.319480
vt 0.952978 0.319480
vt 0.952978 0.436465
vt 0.788151 0.436465
vt 0.788223 0.319459
vt 0.953000 0.319459
vt 0.953000 0.436428
vt 0.788223 0.436428
vt 0.956583 0.191199
vt 0.956536 0.307918
vt 0.785404 0.307862
vt 0.785451 0.191143
vt 0.786307 0.307996
vt 0.788170 0.449767
vt 0.952946 0.319541
vt 0.954552 0.307996
vt 0.952989 0.449767
vt 0.788148 0.319541
vt 0.786307 0.191014
vt 0.952989 0.449767
vt 0.788148 0.319541
vt 0.954552 0.191014
vt 0.952946 0.319541
vt 0.788170 0.449767
vt 0.786307 0.191014
vt 0.788170 0.566788
vt 0.952946 0.436471
vt 0.954552 0.191014
vt 0.952989 0.566788
vt 0.788148 0.436471
vt 0.786307 0.307996
vt 0.952989 0.566788
vt 0.788148 0.436471
vt 0.954552 0.307996
vt 0.952946 0.436471
vt 0.788170 0.566788
vt 0.098145 0.867095
vt 0.129276 0.751206
vt 0.175205 0.764139
vt 0.196920 0.903010
vt 0.009901 0.881577
vt 0.104649 0.977615
vt 0.098081 0.976746
vt 0.108572 0.980186
vt 0.017056 0.919471
vt 0.187131 0.918693
vt 0.014382 0.756516
vt 0.203160 0.822732
vt 0.213115 0.875312
vt 0.230222 0.774019
vt 0.022643 0.751939
vt 0.069166 0.743148
vt 0.116587 0.870112
vt 0.206411 0.926772
vt 0.022969 0.930137
vt 0.102407 0.858561
vt 0.098449 0.762981
vt 0.099592 0.883244
vt 0.218089 0.774396
vt 0.013187 0.825941
vt 0.008035 0.846060
vt 0.093793 0.981334
vt 0.094029 0.981157
vt 0.049925 0.933988
vt 0.056624 0.986671
vt 0.100114 0.995179
vt 0.058062 0.964111
vt 0.055606 0.992929
vt 0.122769 0.969457
vt 0.037876 0.962979
vt 0.082696 0.970325
s 1
usemtl Material.002
f 1/1/1 3/7/1 4/10/1
f 4/10/1 2/4/1 1/1/1
f 6/16/2 9/23/2 10/24/2
f 10/24/2 5/13/2 6/16/2
f 1/2/3 2/5/3 6/17/3
f 6/17/3 5/14/3 1/2/3
f 2/6/4 4/11/4 8/21/4
f 8/21/4 6/18/4 2/6/4
f 4/12/5 3/8/5 7/19/5
f 7/19/5 8/22/5 4/12/5
f 3/9/6 1/3/6 5/15/6
f 5/15/6 7/20/6 3/9/6
f 11/25/7 14/28/7 13/27/7
f 13/27/7 12/26/7 11/25/7
f 15/29/8 18/32/8 17/31/8
f 17/31/8 16/30/8 15/29/8
f 20/34/9 19/33/9 22/36/9
f 22/36/9 21/35/9 20/34/9
f 24/38/10 25/39/10 26/40/10
f 26/40/10 23/37/10 24/38/10
f 30/44/11 27/41/11 28/42/11
f 28/42/11 29/43/11 30/44/11
f 31/45/5 32/46/5 33/47/5
f 33/47/5 34/48/5 31/45/5
f 35/49/4 36/50/4 37/51/4
f 37/51/4 38/52/4 35/49/4
f 39/53/3 40/54/3 41/55/3
f 41/55/3 42/56/3 39/53/3
f 43/57/6 44/58/6 45/59/6
f 45/59/6 46/60/6 43/57/6
f 47/61/12 48/62/12 49/63/12
f 49/63/12 50/64/12 47/61/12
f 51/65/1 53/71/1 54/74/1 52/68/1
f 55/77/12 56/80/12 58/86/12 57/83/12
f 51/66/13 52/69/13 56/81/13 55/78/13
f 52/70/14 54/75/14 58/87/14 56/82/14
f 54/76/15 53/72/15 57/84/15 58/88/15
f 53/73/16 51/67/16 55/79/16 57/85/16
usemtl Material.001
f 59/89/17 60/90/18 61/92/19
f 59/89/17 61/92/19 62/94/20
f 59/89/17 62/94/20 63/97/21
f 59/89/17 63/97/21 64/99/22
f 59/89/17 64/99/22 60/90/18
f 60/91/18 69/110/23 65/104/24
f 61/93/19 65/103/24 66/105/25
f 62/95/20 66/105/25 67/106/26
f 63/98/21 67/107/26 68/108/27
f 64/100/22 68/108/27 69/109/23
f 65/102/24 61/92/19 60/90/18
f 66/105/25 62/95/20 61/93/19
f 67/107/26 63/98/21 62/96/20
f 68/108/27 64/100/22 63/98/21
f 69/110/23 60/91/18 64/101/22
f 70/111/28 66/105/25 65/103/24
f 70/111/28 67/106/26 66/105/25
f 70/112/28 68/108/27 67/107/26
f 70/112/28 69/109/23 68/108/27
f 70/113/28 65/104/24 69/110/23
f 71/115/29 74/122/30 72/116/31
f 71/114/29 72/117/31 73/119/32
f 71/115/29 73/120/32 74/122/30
f 74/123/30 73/121/32 72/118/31
